<?xml version="1.0" encoding="UTF-8"?>
<!DOCTYPE svg PUBLIC "-//W3C//DTD SVG 1.1//EN" "http://www.w3.org/Graphics/SVG/1.1/DTD/svg11.dtd">
<svg xmlns="http://www.w3.org/2000/svg" version="1.1" width="291px" height="296px" style="shape-rendering:geometricPrecision; text-rendering:geometricPrecision; image-rendering:optimizeQuality; fill-rule:evenodd; clip-rule:evenodd" xmlns:xlink="http://www.w3.org/1999/xlink">
<g><path style="opacity:0.129" fill="#434343" d="M 32.5,0.5 C 34.337,0.639452 34.6704,1.30612 33.5,2.5C 32.7025,2.04311 32.3691,1.37644 32.5,0.5 Z"/></g>
<g><path style="opacity:0.337" fill="#4c4c4c" d="M 82.5,0.5 C 84.337,0.639452 84.6704,1.30612 83.5,2.5C 82.7025,2.04311 82.3691,1.37644 82.5,0.5 Z"/></g>
<g><path style="opacity:0.345" fill="#4a4a4a" d="M 107.5,0.5 C 109.337,0.639452 109.67,1.30612 108.5,2.5C 107.702,2.04311 107.369,1.37644 107.5,0.5 Z"/></g>
<g><path style="opacity:0.129" fill="#434343" d="M 157.5,0.5 C 159.337,0.639452 159.67,1.30612 158.5,2.5C 157.702,2.04311 157.369,1.37644 157.5,0.5 Z"/></g>
<g><path style="opacity:0.222" fill="#424242" d="M 182.5,0.5 C 184.337,0.639452 184.67,1.30612 183.5,2.5C 182.702,2.04311 182.369,1.37644 182.5,0.5 Z"/></g>
<g><path style="opacity:0.335" fill="#4d4d4d" d="M 207.5,0.5 C 209.337,0.639452 209.67,1.30612 208.5,2.5C 207.702,2.04311 207.369,1.37644 207.5,0.5 Z"/></g>
<g><path style="opacity:0.337" fill="#464646" d="M 232.5,0.5 C 234.337,0.639452 234.67,1.30612 233.5,2.5C 232.702,2.04311 232.369,1.37644 232.5,0.5 Z"/></g>
<g><path style="opacity:0.271" fill="#4a4a4a" d="M 257.5,0.5 C 259.337,0.639452 259.67,1.30612 258.5,2.5C 257.702,2.04311 257.369,1.37644 257.5,0.5 Z"/></g>
<g><path style="opacity:0.261" fill="#434343" d="M 282.5,0.5 C 284.337,0.639452 284.67,1.30612 283.5,2.5C 282.702,2.04311 282.369,1.37644 282.5,0.5 Z"/></g>
<g><path style="opacity:0.133" fill="#454545" d="M 57.5,0.5 C 59.337,0.639452 59.6704,1.30612 58.5,2.5C 57.7025,2.04311 57.3691,1.37644 57.5,0.5 Z"/></g>
<g><path style="opacity:0.137" fill="#484848" d="M 132.5,0.5 C 134.337,0.639452 134.67,1.30612 133.5,2.5C 132.702,2.04311 132.369,1.37644 132.5,0.5 Z"/></g>
<g><path style="opacity:0.118" fill="#3f3f3f" d="M 7.5,25.5 C 10.0009,25.5109 10.1676,26.1776 8,27.5C 7.53566,26.9056 7.36899,26.2389 7.5,25.5 Z"/></g>
<g><path style="opacity:0.129" fill="#555555" d="M 32.5,25.5 C 34.337,25.6395 34.6704,26.3061 33.5,27.5C 32.7025,27.0431 32.3691,26.3764 32.5,25.5 Z"/></g>
<g><path style="opacity:0.347" fill="#555555" d="M 57.5,25.5 C 59.337,25.6395 59.6704,26.3061 58.5,27.5C 57.7025,27.0431 57.3691,26.3764 57.5,25.5 Z"/></g>
<g><path style="opacity:0.21" fill="#535353" d="M 82.5,25.5 C 84.337,25.6395 84.6704,26.3061 83.5,27.5C 82.7025,27.0431 82.3691,26.3764 82.5,25.5 Z"/></g>
<g><path style="opacity:0.129" fill="#424242" d="M 107.5,25.5 C 109.337,25.6395 109.67,26.3061 108.5,27.5C 107.702,27.0431 107.369,26.3764 107.5,25.5 Z"/></g>
<g><path style="opacity:0.329" fill="#454545" d="M 132.5,25.5 C 135.001,25.5109 135.168,26.1776 133,27.5C 132.536,26.9056 132.369,26.2389 132.5,25.5 Z"/></g>
<g><path style="opacity:0.325" fill="#494949" d="M 157.5,25.5 C 159.337,25.6395 159.67,26.3061 158.5,27.5C 157.702,27.0431 157.369,26.3764 157.5,25.5 Z"/></g>
<g><path style="opacity:0.129" fill="#575757" d="M 207.5,25.5 C 209.337,25.6395 209.67,26.3061 208.5,27.5C 207.702,27.0431 207.369,26.3764 207.5,25.5 Z"/></g>
<g><path style="opacity:0.347" fill="#494949" d="M 232.5,25.5 C 234.337,25.6395 234.67,26.3061 233.5,27.5C 232.702,27.0431 232.369,26.3764 232.5,25.5 Z"/></g>
<g><path style="opacity:0.349" fill="#545454" d="M 282.5,25.5 C 284.337,25.6395 284.67,26.3061 283.5,27.5C 282.702,27.0431 282.369,26.3764 282.5,25.5 Z"/></g>
<g><path style="opacity:0.076" fill="#4f4f4f" d="M 182.5,25.5 C 184.337,25.6395 184.67,26.3061 183.5,27.5C 182.702,27.0431 182.369,26.3764 182.5,25.5 Z"/></g>
<g><path style="opacity:0.024" fill="#545454" d="M 257.5,25.5 C 259.337,25.6395 259.67,26.3061 258.5,27.5C 257.702,27.0431 257.369,26.3764 257.5,25.5 Z"/></g>
<g><path style="opacity:0.276" fill="#4a4a4a" d="M 7.5,50.5 C 9.33702,50.6395 9.67036,51.3061 8.5,52.5C 7.70245,52.0431 7.36912,51.3764 7.5,50.5 Z"/></g>
<g><path style="opacity:0.339" fill="#4b4b4b" d="M 32.5,50.5 C 34.337,50.6395 34.6704,51.3061 33.5,52.5C 32.7025,52.0431 32.3691,51.3764 32.5,50.5 Z"/></g>
<g><path style="opacity:0.343" fill="#4d4d4d" d="M 57.5,50.5 C 59.337,50.6395 59.6704,51.3061 58.5,52.5C 57.7025,52.0431 57.3691,51.3764 57.5,50.5 Z"/></g>
<g><path style="opacity:0.264" fill="#525252" d="M 82.5,50.5 C 84.337,50.6395 84.6704,51.3061 83.5,52.5C 82.7025,52.0431 82.3691,51.3764 82.5,50.5 Z"/></g>
<g><path style="opacity:0.394" fill="#d07356" d="M 167.5,51.5 C 146.311,51.8056 125.144,51.4723 104,50.5C 100.997,50.743 99.83,52.4096 100.5,55.5C 98.47,51.4692 99.8033,49.1359 104.5,48.5C 105.737,48.5565 106.737,49.0565 107.5,50C 127.671,50.1682 147.671,50.6682 167.5,51.5 Z"/></g>
<g><path style="opacity:0.263" fill="#404040" d="M 182.5,50.5 C 184.337,50.6395 184.67,51.3061 183.5,52.5C 182.702,52.0431 182.369,51.3764 182.5,50.5 Z"/></g>
<g><path style="opacity:0.339" fill="#484848" d="M 207.5,50.5 C 209.337,50.6395 209.67,51.3061 208.5,52.5C 207.702,52.0431 207.369,51.3764 207.5,50.5 Z"/></g>
<g><path style="opacity:0.337" fill="#4a4a4a" d="M 232.5,50.5 C 234.337,50.6395 234.67,51.3061 233.5,52.5C 232.702,52.0431 232.369,51.3764 232.5,50.5 Z"/></g>
<g><path style="opacity:0.363" fill="#5a5a5a" d="M 257.5,50.5 C 259.337,50.6395 259.67,51.3061 258.5,52.5C 257.702,52.0431 257.369,51.3764 257.5,50.5 Z"/></g>
<g><path style="opacity:0.281" fill="#525252" d="M 282.5,50.5 C 284.337,50.6395 284.67,51.3061 283.5,52.5C 282.702,52.0431 282.369,51.3764 282.5,50.5 Z"/></g>
<g><path style="opacity:1" fill="#fc6233" d="M 157.5,59.5 C 143.533,59.2031 129.533,59.5365 115.5,60.5C 117.42,67.6598 115.087,69.3264 108.5,65.5C 108.286,63.8561 108.62,62.3561 109.5,61C 106.371,60.8832 105.205,59.3832 106,56.5C 107,57.8333 108,57.8333 109,56.5C 109.49,55.2068 109.657,53.8734 109.5,52.5C 128.836,52.3334 148.17,52.5 167.5,53C 168.38,54.3561 168.714,55.8561 168.5,57.5C 166.857,57.5198 165.524,56.8532 164.5,55.5C 162.15,56.7739 162.317,58.1073 165,59.5C 165.49,60.7932 165.657,62.1266 165.5,63.5C 162.846,62.1887 160.179,60.8553 157.5,59.5 Z"/></g>
<g><path style="opacity:1" fill="#f56339" d="M 167.5,51.5 C 170.128,52.6248 170.961,54.6248 170,57.5C 160.406,74.3622 150.573,91.0289 140.5,107.5C 140.449,105.43 141.115,103.597 142.5,102C 142.265,101.127 141.931,100.293 141.5,99.5C 141.938,98.4937 142.604,98.4937 143.5,99.5C 144.5,98 145.5,96.5 146.5,95C 146.095,94.0546 145.428,93.3879 144.5,93C 145.793,92.51 147.127,92.3433 148.5,92.5C 148.838,89.8431 148.171,87.5098 146.5,85.5C 145.749,86.376 145.249,87.376 145,88.5C 144.329,87.7476 143.496,87.4142 142.5,87.5C 147.5,78.1667 152.5,68.8333 157.5,59.5C 160.179,60.8553 162.846,62.1887 165.5,63.5C 165.657,62.1266 165.49,60.7932 165,59.5C 162.317,58.1073 162.15,56.7739 164.5,55.5C 165.524,56.8532 166.857,57.5198 168.5,57.5C 168.714,55.8561 168.38,54.3561 167.5,53C 148.17,52.5 128.836,52.3334 109.5,52.5C 109.657,53.8734 109.49,55.2068 109,56.5C 108,57.8333 107,57.8333 106,56.5C 105.205,59.3832 106.371,60.8832 109.5,61C 108.62,62.3561 108.286,63.8561 108.5,65.5C 106.303,61.7623 103.636,58.429 100.5,55.5C 99.83,52.4096 100.997,50.743 104,50.5C 125.144,51.4723 146.311,51.8056 167.5,51.5 Z"/></g>
<g><path style="opacity:0.318" fill="#424242" d="M 7.5,75.5 C 9.33702,75.6395 9.67036,76.3061 8.5,77.5C 7.70245,77.0431 7.36912,76.3764 7.5,75.5 Z"/></g>
<g><path style="opacity:0.248" fill="#2c2c2c" d="M 32.5,75.5 C 34.337,75.6395 34.6704,76.3061 33.5,77.5C 32.7025,77.0431 32.3691,76.3764 32.5,75.5 Z"/></g>
<g><path style="opacity:0.238" fill="#393939" d="M 82.5,75.5 C 85.0009,75.5109 85.1676,76.1776 83,77.5C 82.5357,76.9056 82.369,76.2389 82.5,75.5 Z"/></g>
<g><path style="opacity:0.137" fill="#6f6464" d="M 132.5,75.5 C 134.337,75.6395 134.67,76.3061 133.5,77.5C 132.702,77.0431 132.369,76.3764 132.5,75.5 Z"/></g>
<g><path style="opacity:0.129" fill="#494949" d="M 257.5,75.5 C 259.337,75.6395 259.67,76.3061 258.5,77.5C 257.702,77.0431 257.369,76.3764 257.5,75.5 Z"/></g>
<g><path style="opacity:0.285" fill="#4f4f4f" d="M 282.5,75.5 C 284.337,75.6395 284.67,76.3061 283.5,77.5C 282.702,77.0431 282.369,76.3764 282.5,75.5 Z"/></g>
<g><path style="opacity:0.125" fill="#52393e" d="M 107.5,75.5 C 109.337,75.6395 109.67,76.3061 108.5,77.5C 107.702,77.0431 107.369,76.3764 107.5,75.5 Z"/></g>
<g><path style="opacity:0.129" fill="#414141" d="M 182.5,75.5 C 185.001,75.5109 185.168,76.1776 183,77.5C 182.536,76.9056 182.369,76.2389 182.5,75.5 Z"/></g>
<g><path style="opacity:0.129" fill="#563c3c" d="M 232.5,75.5 C 234.337,75.6395 234.67,76.3061 233.5,77.5C 232.702,77.0431 232.369,76.3764 232.5,75.5 Z"/></g>
<g><path style="opacity:0.997" fill="#f56436" d="M 219.5,86.5 C 218.206,85.7101 217.039,84.7101 216,83.5C 213.694,90.3897 211.861,97.3897 210.5,104.5C 209.414,104.38 208.747,103.713 208.5,102.5C 210.769,98.684 211.102,94.684 209.5,90.5C 209.709,89.0055 210.376,87.8388 211.5,87C 210.128,86.5983 208.795,86.0983 207.5,85.5C 206.147,88.5454 206.48,91.3788 208.5,94C 206.984,97.4898 205.818,97.3231 205,93.5C 204.171,98.1373 203.671,102.804 203.5,107.5C 201.821,107.285 200.821,107.952 200.5,109.5C 200.204,111.403 199.537,113.07 198.5,114.5C 201.389,101.276 204.722,88.2757 208.5,75.5C 209.92,74.1336 211.42,72.8002 213,71.5C 214.726,72.6479 214.559,73.8145 212.5,75C 212.833,75.3333 213.167,75.6667 213.5,76C 215.345,75.2173 217.345,74.884 219.5,75C 221.5,77 223.5,79 225.5,81C 223.438,81.5639 221.605,81.0639 220,79.5C 219.5,79.8333 219,80.1667 218.5,80.5C 219.348,82.4086 219.682,84.4086 219.5,86.5 Z"/></g>
<g><path style="opacity:1" fill="#f86439" d="M 230.5,84.5 C 230.343,85.8734 230.51,87.2068 231,88.5C 234.039,89.5314 236.539,91.3647 238.5,94C 236.673,95.6544 234.84,96.4877 233,96.5C 232.383,95.5509 232.549,94.7175 233.5,94C 232.328,93.6466 231.162,93.8132 230,94.5C 228.594,93.5862 227.094,92.9195 225.5,92.5C 223.167,90.8333 221.167,88.8333 219.5,86.5C 219.682,84.4086 219.348,82.4086 218.5,80.5C 219,80.1667 219.5,79.8333 220,79.5C 221.605,81.0639 223.438,81.5639 225.5,81C 223.5,79 221.5,77 219.5,75C 217.345,74.884 215.345,75.2173 213.5,76C 213.167,75.6667 212.833,75.3333 212.5,75C 214.559,73.8145 214.726,72.6479 213,71.5C 211.42,72.8002 209.92,74.1336 208.5,75.5C 209.123,70.7119 211.79,68.8786 216.5,70C 221.37,74.7021 226.037,79.5354 230.5,84.5 Z"/></g>
<g><path style="opacity:1" fill="#f86335" d="M 63.5,71.5 C 63.5,72.8333 63.5,74.1667 63.5,75.5C 60.7531,75.1866 58.0865,75.52 55.5,76.5C 55.4772,79.0175 55.1438,81.6842 54.5,84.5C 53.5,84.5 52.5,84.5 51.5,84.5C 51.5,85.8333 51.5,87.1667 51.5,88.5C 46.5,94.1667 41.1667,99.5 35.5,104.5C 32.4633,102.814 31.13,103.814 31.5,107.5C 26.0709,106.697 25.5709,105.031 30,102.5C 30.49,101.207 30.6567,99.8734 30.5,98.5C 31.8333,98.5 33.1667,98.5 34.5,98.5C 34.3433,97.1266 34.51,95.7932 35,94.5C 36.8022,93.2107 37.9688,91.5441 38.5,89.5C 44.6306,82.8685 50.964,76.3685 57.5,70C 59.9894,69.0589 61.9894,69.5589 63.5,71.5 Z"/></g>
<g><path style="opacity:1" fill="#f76435" d="M 63.5,71.5 C 67.2577,82.1887 70.2577,93.1887 72.5,104.5C 71.5416,104.047 70.7083,103.381 70,102.5C 70.1159,97.2445 68.2826,92.9112 64.5,89.5C 63.5159,92.4281 63.1826,95.4281 63.5,98.5C 62.9851,96.2488 61.9851,94.2488 60.5,92.5C 59.494,89.5113 58.3273,86.5113 57,83.5C 55.2962,85.3734 53.4628,87.0401 51.5,88.5C 51.5,87.1667 51.5,85.8333 51.5,84.5C 52.5,84.5 53.5,84.5 54.5,84.5C 55.1438,81.6842 55.4772,79.0175 55.5,76.5C 58.0865,75.52 60.7531,75.1866 63.5,75.5C 63.5,74.1667 63.5,72.8333 63.5,71.5 Z"/></g>
<g><path style="opacity:1" fill="#f76438" d="M 115.5,60.5 C 122.254,70.334 128.254,80.6674 133.5,91.5C 131.24,91.603 128.906,91.9363 126.5,92.5C 125.167,91.8333 123.833,91.1667 122.5,90.5C 117.568,82.301 112.901,73.9677 108.5,65.5C 115.087,69.3264 117.42,67.6598 115.5,60.5 Z"/></g>
<g><path style="opacity:1" fill="#fd6132" d="M 72.5,104.5 C 72.4675,108.969 72.8008,113.136 73.5,117C 72.0997,118.438 70.433,119.271 68.5,119.5C 67.388,111.608 65.7213,104.608 63.5,98.5C 63.1826,95.4281 63.5159,92.4281 64.5,89.5C 68.2826,92.9112 70.1159,97.2445 70,102.5C 70.7083,103.381 71.5416,104.047 72.5,104.5 Z"/></g>
<g><path style="opacity:1" fill="#e96a46" d="M 230.5,84.5 C 241.043,93.8752 250.71,104.042 259.5,115C 259.192,116.459 258.525,117.626 257.5,118.5C 257.662,116.473 257.495,114.473 257,112.5C 253.631,108.963 250.131,105.629 246.5,102.5C 245.07,100.256 243.07,98.4228 240.5,97C 238.153,96.6664 235.819,96.833 233.5,97.5C 235.447,100.464 237.447,103.464 239.5,106.5C 237.537,105.04 235.704,103.373 234,101.5C 231.386,99.0321 228.553,96.0321 225.5,92.5C 227.094,92.9195 228.594,93.5862 230,94.5C 231.162,93.8132 232.328,93.6466 233.5,94C 232.549,94.7175 232.383,95.5509 233,96.5C 234.84,96.4877 236.673,95.6544 238.5,94C 236.539,91.3647 234.039,89.5314 231,88.5C 230.51,87.2068 230.343,85.8734 230.5,84.5 Z"/></g>
<g><path style="opacity:0.331" fill="#494949" d="M 82.5,100.5 C 84.337,100.639 84.6704,101.306 83.5,102.5C 82.7025,102.043 82.3691,101.376 82.5,100.5 Z"/></g>
<g><path style="opacity:0.118" fill="#525252" d="M 107.5,100.5 C 110.001,100.511 110.168,101.178 108,102.5C 107.536,101.906 107.369,101.239 107.5,100.5 Z"/></g>
<g><path style="opacity:0.322" fill="#4e4e4e" d="M 182.5,100.5 C 184.337,100.639 184.67,101.306 183.5,102.5C 182.702,102.043 182.369,101.376 182.5,100.5 Z"/></g>
<g><path style="opacity:1" fill="#f96333" d="M 246.5,102.5 C 247.441,104.466 248.441,106.466 249.5,108.5C 247.585,110.071 246.585,112.071 246.5,114.5C 244.833,114.5 243.167,114.5 241.5,114.5C 242.609,113.71 243.942,113.21 245.5,113C 243.294,110.963 241.294,108.797 239.5,106.5C 237.447,103.464 235.447,100.464 233.5,97.5C 235.819,96.833 238.153,96.6664 240.5,97C 243.07,98.4228 245.07,100.256 246.5,102.5 Z"/></g>
<g><path style="opacity:0.3" fill="#403232" d="M 257.5,100.5 C 259.337,100.639 259.67,101.306 258.5,102.5C 257.702,102.043 257.369,101.376 257.5,100.5 Z"/></g>
<g><path style="opacity:0.272" fill="#4f4f4f" d="M 282.5,100.5 C 284.337,100.639 284.67,101.306 283.5,102.5C 282.702,102.043 282.369,101.376 282.5,100.5 Z"/></g>
<g><path style="opacity:0.125" fill="#393939" d="M 7.5,100.5 C 9.33702,100.639 9.67036,101.306 8.5,102.5C 7.70245,102.043 7.36912,101.376 7.5,100.5 Z"/></g>
<g><path style="opacity:0.137" fill="#8c6f6e" d="M 57.5,100.5 C 59.337,100.639 59.6704,101.306 58.5,102.5C 57.7025,102.043 57.3691,101.376 57.5,100.5 Z"/></g>
<g><path style="opacity:0.141" fill="#504b48" d="M 157.5,100.5 C 159.337,100.639 159.67,101.306 158.5,102.5C 157.702,102.043 157.369,101.376 157.5,100.5 Z"/></g>
<g><path style="opacity:1" fill="#fa6233" d="M 140.5,107.5 C 140.672,108.492 140.338,109.158 139.5,109.5C 137.782,108.776 135.948,108.109 134,107.5C 130.947,102.728 128.447,97.7279 126.5,92.5C 128.906,91.9363 131.24,91.603 133.5,91.5C 134.429,92.9361 135.595,94.2695 137,95.5C 138.609,92.5932 140.442,89.9266 142.5,87.5C 143.496,87.4142 144.329,87.7476 145,88.5C 145.249,87.376 145.749,86.376 146.5,85.5C 148.171,87.5098 148.838,89.8431 148.5,92.5C 147.127,92.3433 145.793,92.51 144.5,93C 145.428,93.3879 146.095,94.0546 146.5,95C 145.5,96.5 144.5,98 143.5,99.5C 142.604,98.4937 141.938,98.4937 141.5,99.5C 141.931,100.293 142.265,101.127 142.5,102C 141.115,103.597 140.449,105.43 140.5,107.5 Z"/></g>
<g><path style="opacity:0.941" fill="#e76f4d" d="M 122.5,90.5 C 123.833,91.1667 125.167,91.8333 126.5,92.5C 128.447,97.7279 130.947,102.728 134,107.5C 135.948,108.109 137.782,108.776 139.5,109.5C 137.064,111.017 134.898,110.684 133,108.5C 129.672,102.353 126.172,96.3531 122.5,90.5 Z"/></g>
<g><path style="opacity:1" fill="#f96235" d="M 210.5,104.5 C 208.369,110.688 206.703,117.022 205.5,123.5C 204.072,120.3 204.405,117.134 206.5,114C 204.984,111.734 202.984,110.234 200.5,109.5C 200.821,107.952 201.821,107.285 203.5,107.5C 203.671,102.804 204.171,98.1373 205,93.5C 205.818,97.3231 206.984,97.4898 208.5,94C 206.48,91.3788 206.147,88.5454 207.5,85.5C 208.795,86.0983 210.128,86.5983 211.5,87C 210.376,87.8388 209.709,89.0055 209.5,90.5C 211.102,94.684 210.769,98.684 208.5,102.5C 208.747,103.713 209.414,104.38 210.5,104.5 Z"/></g>
<g><path style="opacity:1" fill="#f5643a" d="M 38.5,89.5 C 37.9688,91.5441 36.8022,93.2107 35,94.5C 34.51,95.7932 34.3433,97.1266 34.5,98.5C 33.1667,98.5 31.8333,98.5 30.5,98.5C 30.6567,99.8734 30.49,101.207 30,102.5C 25.5709,105.031 26.0709,106.697 31.5,107.5C 31.13,103.814 32.4633,102.814 35.5,104.5C 33.1891,107.147 30.8558,109.814 28.5,112.5C 32.326,113.696 35.9927,115.029 39.5,116.5C 35.2068,116.625 31.0402,115.958 27,114.5C 25.3333,114.833 23.6667,115.167 22,115.5C 19.8831,114.842 18.0498,114.009 16.5,113C 16.0426,113.414 15.7093,113.914 15.5,114.5C 17.9575,115.124 19.6242,116.624 20.5,119C 22.0468,119.333 23.3801,118.833 24.5,117.5C 25.5779,119.461 26.9113,121.128 28.5,122.5C 23.5901,121.819 19.0901,120.152 15,117.5C 14.3333,115.833 14.3333,114.167 15,112.5C 22.7017,104.631 30.5351,96.9642 38.5,89.5 Z"/></g>
<g><path style="opacity:1" fill="#f96335" d="M 39.5,116.5 C 44.8094,117.076 49.8094,118.409 54.5,120.5C 51.2719,120.299 48.1052,120.633 45,121.5C 43.662,120.494 42.3287,119.494 41,118.5C 39.1949,120.32 37.0282,121.486 34.5,122C 36.1193,122.236 37.1193,123.069 37.5,124.5C 34.3704,124.3 31.3704,123.634 28.5,122.5C 26.9113,121.128 25.5779,119.461 24.5,117.5C 23.3801,118.833 22.0468,119.333 20.5,119C 19.6242,116.624 17.9575,115.124 15.5,114.5C 15.7093,113.914 16.0426,113.414 16.5,113C 18.0498,114.009 19.8831,114.842 22,115.5C 23.6667,115.167 25.3333,114.833 27,114.5C 31.0402,115.958 35.2068,116.625 39.5,116.5 Z"/></g>
<g><path style="opacity:1" fill="#fa6134" d="M 246.5,102.5 C 250.131,105.629 253.631,108.963 257,112.5C 257.495,114.473 257.662,116.473 257.5,118.5C 251.681,120.794 245.681,122.794 239.5,124.5C 236.959,121.885 234.292,121.885 231.5,124.5C 224.867,123.187 224.867,121.854 231.5,120.5C 230.271,119.719 228.938,119.219 227.5,119C 233.025,120.903 237.358,119.403 240.5,114.5C 240.833,114.5 241.167,114.5 241.5,114.5C 243.167,114.5 244.833,114.5 246.5,114.5C 246.585,112.071 247.585,110.071 249.5,108.5C 248.441,106.466 247.441,104.466 246.5,102.5 Z"/></g>
<g><path style="opacity:1" fill="#fc612f" d="M 54.5,120.5 C 54.8333,120.5 55.1667,120.5 55.5,120.5C 57.3854,122.311 59.7187,123.478 62.5,124C 62.1667,124.333 61.8333,124.667 61.5,125C 63.9739,125.113 65.9739,126.113 67.5,128C 66.8921,128.87 66.0588,129.37 65,129.5C 63.3257,128.165 61.659,126.831 60,125.5C 57.9045,126.715 58.0712,127.549 60.5,128C 58.5,128.667 56.5,128.667 54.5,128C 57.0317,127.388 57.8651,125.888 57,123.5C 54.5393,124.218 52.0393,124.885 49.5,125.5C 48.452,124.617 47.2853,123.95 46,123.5C 43.2305,124.348 40.3971,124.681 37.5,124.5C 37.1193,123.069 36.1193,122.236 34.5,122C 37.0282,121.486 39.1949,120.32 41,118.5C 42.3287,119.494 43.662,120.494 45,121.5C 48.1052,120.633 51.2719,120.299 54.5,120.5 Z"/></g>
<g><path style="opacity:1" fill="#f56439" d="M 240.5,114.5 C 237.358,119.403 233.025,120.903 227.5,119C 228.938,119.219 230.271,119.719 231.5,120.5C 224.867,121.854 224.867,123.187 231.5,124.5C 234.292,121.885 236.959,121.885 239.5,124.5C 229.138,127.091 218.471,129.757 207.5,132.5C 208.787,130.743 210.287,129.076 212,127.5C 213.726,128.576 215.559,128.743 217.5,128C 216.167,127.333 216.167,126.667 217.5,126C 220.275,125.994 222.275,124.827 223.5,122.5C 223.167,121.833 222.833,121.167 222.5,120.5C 218.972,121.921 215.306,122.588 211.5,122.5C 220.957,119.465 230.624,116.798 240.5,114.5 Z"/></g>
<g><path style="opacity:1" fill="#fc6132" d="M 149.5,124.5 C 150.167,124.5 150.833,124.5 151.5,124.5C 154.46,127.6 153.793,129.767 149.5,131C 149.833,131.333 150.167,131.667 150.5,132C 146.009,131.052 141.343,130.552 136.5,130.5C 133.795,130.316 131.462,130.983 129.5,132.5C 128.833,132.5 128.167,132.5 127.5,132.5C 123.757,131.584 120.09,130.25 116.5,128.5C 116.709,127.914 117.043,127.414 117.5,127C 128.063,124.953 138.73,124.12 149.5,124.5 Z"/></g>
<g><path style="opacity:1" fill="#f86335" d="M 200.5,109.5 C 202.984,110.234 204.984,111.734 206.5,114C 204.405,117.134 204.072,120.3 205.5,123.5C 207.5,123.167 209.5,122.833 211.5,122.5C 215.306,122.588 218.972,121.921 222.5,120.5C 222.833,121.167 223.167,121.833 223.5,122.5C 222.275,124.827 220.275,125.994 217.5,126C 216.167,126.667 216.167,127.333 217.5,128C 215.559,128.743 213.726,128.576 212,127.5C 210.287,129.076 208.787,130.743 207.5,132.5C 203.42,134.395 199.253,134.728 195,133.5C 194.362,132.391 193.862,131.225 193.5,130C 194.956,124.643 196.623,119.477 198.5,114.5C 199.537,113.07 200.204,111.403 200.5,109.5 Z"/></g>
<g><path style="opacity:0.075" fill="#8c6359" d="M 32.5,125.5 C 35.0009,125.511 35.1676,126.178 33,127.5C 32.5357,126.906 32.369,126.239 32.5,125.5 Z"/></g>
<g><path style="opacity:1" fill="#f76438" d="M 60.5,92.5 C 61.9851,94.2488 62.9851,96.2488 63.5,98.5C 65.7213,104.608 67.388,111.608 68.5,119.5C 70.433,119.271 72.0997,118.438 73.5,117C 72.8008,113.136 72.4675,108.969 72.5,104.5C 75.9139,113.492 78.0806,122.826 79,132.5C 76.8471,134.444 74.3471,134.944 71.5,134C 59.9605,131.119 48.6272,127.952 37.5,124.5C 40.3971,124.681 43.2305,124.348 46,123.5C 47.2853,123.95 48.452,124.617 49.5,125.5C 52.0393,124.885 54.5393,124.218 57,123.5C 57.8651,125.888 57.0317,127.388 54.5,128C 56.5,128.667 58.5,128.667 60.5,128C 58.0712,127.549 57.9045,126.715 60,125.5C 61.659,126.831 63.3257,128.165 65,129.5C 66.0588,129.37 66.8921,128.87 67.5,128C 65.9739,126.113 63.9739,125.113 61.5,125C 61.8333,124.667 62.1667,124.333 62.5,124C 59.7187,123.478 57.3854,122.311 55.5,120.5C 59.45,121.112 63.2834,122.112 67,123.5C 67.5,123 68,122.5 68.5,122C 65.1346,112.373 62.4679,102.54 60.5,92.5 Z"/></g>
<g><path style="opacity:0.133" fill="#6a645f" d="M 82.5,125.5 C 84.337,125.639 84.6704,126.306 83.5,127.5C 82.7025,127.043 82.3691,126.376 82.5,125.5 Z"/></g>
<g><path style="opacity:0.137" fill="#776756" d="M 107.5,125.5 C 109.337,125.639 109.67,126.306 108.5,127.5C 107.702,127.043 107.369,126.376 107.5,125.5 Z"/></g>
<g><path style="opacity:0.141" fill="#62514f" d="M 257.5,125.5 C 259.337,125.639 259.67,126.306 258.5,127.5C 257.702,127.043 257.369,126.376 257.5,125.5 Z"/></g>
<g><path style="opacity:0.347" fill="#575757" d="M 282.5,125.5 C 285.001,125.511 285.168,126.178 283,127.5C 282.536,126.906 282.369,126.239 282.5,125.5 Z"/></g>
<g><path style="opacity:0.133" fill="#544f3a" d="M 7.5,125.5 C 9.33702,125.639 9.67036,126.306 8.5,127.5C 7.70245,127.043 7.36912,126.376 7.5,125.5 Z"/></g>
<g><path style="opacity:1" fill="#f0673e" d="M 151.5,124.5 C 162.193,126.513 171.527,131.18 179.5,138.5C 177.287,137.395 175.12,137.395 173,138.5C 171.758,136.141 170.258,134.141 168.5,132.5C 165.987,130.004 163.487,129.67 161,131.5C 159.531,129.586 157.865,128.919 156,129.5C 156.099,132.364 157.265,134.697 159.5,136.5C 149.816,133.026 139.816,131.693 129.5,132.5C 131.462,130.983 133.795,130.316 136.5,130.5C 141.343,130.552 146.009,131.052 150.5,132C 150.167,131.667 149.833,131.333 149.5,131C 153.793,129.767 154.46,127.6 151.5,124.5 Z"/></g>
<g><path style="opacity:0.141" fill="#685551" d="M 182.5,125.5 C 184.337,125.639 184.67,126.306 183.5,127.5C 182.702,127.043 182.369,126.376 182.5,125.5 Z"/></g>
<g><path style="opacity:1" fill="#f76538" d="M 168.5,132.5 C 167.474,136.094 168.807,138.928 172.5,141C 172.167,141.333 171.833,141.667 171.5,142C 173.425,141.865 175.425,141.698 177.5,141.5C 177.338,143.527 177.505,145.527 178,147.5C 180.127,149.114 181.627,151.114 182.5,153.5C 175.65,146.591 167.984,140.924 159.5,136.5C 157.265,134.697 156.099,132.364 156,129.5C 157.865,128.919 159.531,129.586 161,131.5C 163.487,129.67 165.987,130.004 168.5,132.5 Z"/></g>
<g><path style="opacity:1" fill="#f46539" d="M 149.5,124.5 C 138.73,124.12 128.063,124.953 117.5,127C 117.043,127.414 116.709,127.914 116.5,128.5C 120.09,130.25 123.757,131.584 127.5,132.5C 117.214,134.641 107.881,138.974 99.5,145.5C 98.1716,144.09 98.5049,142.924 100.5,142C 98.5595,141.696 96.8928,140.863 95.5,139.5C 90.8159,142.859 86.4825,146.526 82.5,150.5C 96.2095,132.477 114.543,123.144 137.5,122.5C 141.678,122.956 145.678,123.623 149.5,124.5 Z"/></g>
<g><path style="opacity:1" fill="#fb6032" d="M 99.5,145.5 C 97.5,148.167 95.1667,150.5 92.5,152.5C 91.1725,150.104 89.5058,150.104 87.5,152.5C 87.9312,153.293 88.2645,154.127 88.5,155C 86.5951,156.902 85.0951,159.068 84,161.5C 82.6012,160.773 81.1012,160.273 79.5,160C 83.5232,157.787 84.5232,154.621 82.5,150.5C 86.4825,146.526 90.8159,142.859 95.5,139.5C 96.8928,140.863 98.5595,141.696 100.5,142C 98.5049,142.924 98.1716,144.09 99.5,145.5 Z"/></g>
<g><path style="opacity:1" fill="#f3663b" d="M 119.5,141.5 C 125.82,141.32 128.32,144.32 127,150.5C 124.833,153.287 121.999,154.12 118.5,153C 114.376,148.695 114.709,144.862 119.5,141.5 Z"/></g>
<g><path style="opacity:1" fill="#f56539" d="M 157.5,150.5 C 155.142,153.236 152.142,154.07 148.5,153C 145.346,150.225 144.846,147.058 147,143.5C 154.288,139.941 157.788,142.274 157.5,150.5 Z"/></g>
<g><path style="opacity:0.318" fill="#3e3e3e" d="M 32.5,150.5 C 35.0009,150.511 35.1676,151.178 33,152.5C 32.5357,151.906 32.369,151.239 32.5,150.5 Z"/></g>
<g><path style="opacity:0.145" fill="#6a5e5d" d="M 107.5,150.5 C 109.337,150.639 109.67,151.306 108.5,152.5C 107.702,152.043 107.369,151.376 107.5,150.5 Z"/></g>
<g><path style="opacity:0.133" fill="#494949" d="M 207.5,150.5 C 209.337,150.639 209.67,151.306 208.5,152.5C 207.702,152.043 207.369,151.376 207.5,150.5 Z"/></g>
<g><path style="opacity:0.288" fill="#2e2e2e" d="M 232.5,150.5 C 235.001,150.511 235.168,151.178 233,152.5C 232.536,151.906 232.369,151.239 232.5,150.5 Z"/></g>
<g><path style="opacity:0.333" fill="#4e4e4e" d="M 282.5,150.5 C 285.001,150.511 285.168,151.178 283,152.5C 282.536,151.906 282.369,151.239 282.5,150.5 Z"/></g>
<g><path style="opacity:0.137" fill="#555555" d="M 7.5,150.5 C 9.33702,150.639 9.67036,151.306 8.5,152.5C 7.70245,152.043 7.36912,151.376 7.5,150.5 Z"/></g>
<g><path style="opacity:0.012" fill="#4e4e4e" d="M 57.5,150.5 C 59.337,150.639 59.6704,151.306 58.5,152.5C 57.7025,152.043 57.3691,151.376 57.5,150.5 Z"/></g>
<g><path style="opacity:0.149" fill="#7e6667" d="M 132.5,150.5 C 134.337,150.639 134.67,151.306 133.5,152.5C 132.702,152.043 132.369,151.376 132.5,150.5 Z"/></g>
<g><path style="opacity:0.094" fill="#92695a" d="M 157.5,150.5 C 160.001,150.511 160.168,151.178 158,152.5C 157.536,151.906 157.369,151.239 157.5,150.5 Z"/></g>
<g><path style="opacity:0.129" fill="#535353" d="M 257.5,150.5 C 260.001,150.511 260.168,151.178 258,152.5C 257.536,151.906 257.369,151.239 257.5,150.5 Z"/></g>
<g><path style="opacity:1" fill="#f46539" d="M 82.5,150.5 C 84.5232,154.621 83.5232,157.787 79.5,160C 81.1012,160.273 82.6012,160.773 84,161.5C 85.0951,159.068 86.5951,156.902 88.5,155C 88.2645,154.127 87.9312,153.293 87.5,152.5C 89.5058,150.104 91.1725,150.104 92.5,152.5C 86.331,159.837 81.9977,168.17 79.5,177.5C 79.3605,179.337 78.6939,179.67 77.5,178.5C 78.5094,174.809 79.5094,171.143 80.5,167.5C 74.8109,165.453 72.8109,167.286 74.5,173C 73.2593,174.698 71.926,176.198 70.5,177.5C 72.0866,167.335 76.0866,158.335 82.5,150.5 Z"/></g>
<g><path style="opacity:1" fill="#fb6133" d="M 168.5,132.5 C 170.258,134.141 171.758,136.141 173,138.5C 175.12,137.395 177.287,137.395 179.5,138.5C 180.167,138.833 180.833,139.167 181.5,139.5C 184.333,143.833 186.667,148.5 188.5,153.5C 189.086,153.291 189.586,152.957 190,152.5C 192.173,154.53 193.507,156.863 194,159.5C 190.305,155.371 188.972,156.038 190,161.5C 187.915,159.918 186.415,157.918 185.5,155.5C 184.583,154.873 183.583,154.539 182.5,154.5C 182.5,154.167 182.5,153.833 182.5,153.5C 181.627,151.114 180.127,149.114 178,147.5C 177.505,145.527 177.338,143.527 177.5,141.5C 175.425,141.698 173.425,141.865 171.5,142C 171.833,141.667 172.167,141.333 172.5,141C 168.807,138.928 167.474,136.094 168.5,132.5 Z"/></g>
<g><path style="opacity:1" fill="#f46437" d="M 105.5,159.5 C 112.458,160.467 114.291,164.134 111,170.5C 105.964,173.145 102.464,171.645 100.5,166C 101.283,163.062 102.95,160.896 105.5,159.5 Z"/></g>
<g><path style="opacity:1" fill="#f56438" d="M 136.5,159.5 C 142.809,161.428 144.143,165.261 140.5,171C 133.718,172.875 130.552,170.375 131,163.5C 132.5,161.531 134.333,160.198 136.5,159.5 Z"/></g>
<g><path style="opacity:1" fill="#f46439" d="M 166.5,159.5 C 172.809,161.428 174.143,165.261 170.5,171C 163.718,172.875 160.552,170.375 161,163.5C 162.5,161.531 164.333,160.198 166.5,159.5 Z"/></g>
<g><path style="opacity:1" fill="#f6653a" d="M 181.5,139.5 C 192.929,149.678 200.262,162.345 203.5,177.5C 203.585,178.995 202.919,179.995 201.5,180.5C 200.088,179.194 198.421,178.36 196.5,178C 197.334,175.327 198.667,172.993 200.5,171C 200.054,169.274 199.221,167.774 198,166.5C 196.465,170.225 194.965,173.892 193.5,177.5C 191.697,168.896 188.03,161.229 182.5,154.5C 183.583,154.539 184.583,154.873 185.5,155.5C 186.415,157.918 187.915,159.918 190,161.5C 188.972,156.038 190.305,155.371 194,159.5C 193.507,156.863 192.173,154.53 190,152.5C 189.586,152.957 189.086,153.291 188.5,153.5C 186.667,148.5 184.333,143.833 181.5,139.5 Z"/></g>
<g><path style="opacity:0.276" fill="#575757" d="M 7.5,175.5 C 9.33702,175.639 9.67036,176.306 8.5,177.5C 7.70245,177.043 7.36912,176.376 7.5,175.5 Z"/></g>
<g><path style="opacity:0.137" fill="#515151" d="M 32.5,175.5 C 34.337,175.639 34.6704,176.306 33.5,177.5C 32.7025,177.043 32.3691,176.376 32.5,175.5 Z"/></g>
<g><path style="opacity:0.11" fill="#816b61" d="M 132.5,175.5 C 135.001,175.511 135.168,176.178 133,177.5C 132.536,176.906 132.369,176.239 132.5,175.5 Z"/></g>
<g><path style="opacity:0.129" fill="#ad5747" d="M 157.5,175.5 C 159.337,175.639 159.67,176.306 158.5,177.5C 157.702,177.043 157.369,176.376 157.5,175.5 Z"/></g>
<g><path style="opacity:0.114" fill="#a7544e" d="M 182.5,175.5 C 184.337,175.639 184.67,176.306 183.5,177.5C 182.702,177.043 182.369,176.376 182.5,175.5 Z"/></g>
<g><path style="opacity:0.118" fill="#ad4b3a" d="M 207.5,175.5 C 209.337,175.639 209.67,176.306 208.5,177.5C 207.702,177.043 207.369,176.376 207.5,175.5 Z"/></g>
<g><path style="opacity:0.125" fill="#434343" d="M 232.5,175.5 C 234.337,175.639 234.67,176.306 233.5,177.5C 232.702,177.043 232.369,176.376 232.5,175.5 Z"/></g>
<g><path style="opacity:0.141" fill="#5a5a5a" d="M 257.5,175.5 C 259.337,175.639 259.67,176.306 258.5,177.5C 257.702,177.043 257.369,176.376 257.5,175.5 Z"/></g>
<g><path style="opacity:0.076" fill="#575757" d="M 282.5,175.5 C 284.337,175.639 284.67,176.306 283.5,177.5C 282.702,177.043 282.369,176.376 282.5,175.5 Z"/></g>
<g><path style="opacity:0.012" fill="#9a5450" d="M 57.5,175.5 C 59.337,175.639 59.6704,176.306 58.5,177.5C 57.7025,177.043 57.3691,176.376 57.5,175.5 Z"/></g>
<g><path style="opacity:0.012" fill="#9f5b56" d="M 107.5,175.5 C 109.337,175.639 109.67,176.306 108.5,177.5C 107.702,177.043 107.369,176.376 107.5,175.5 Z"/></g>
<g><path style="opacity:1" fill="#fd6132" d="M 151.5,179.5 C 151.611,180.117 151.944,180.617 152.5,181C 147.5,181.333 142.5,181.667 137.5,182C 138.056,182.383 138.389,182.883 138.5,183.5C 136.533,183.739 134.699,183.406 133,182.5C 132.511,184.604 131.345,184.938 129.5,183.5C 123.651,185.48 117.651,185.98 111.5,185C 108.997,183.216 108.997,181.549 111.5,180C 124.829,179.5 138.163,179.333 151.5,179.5 Z"/></g>
<g><path style="opacity:1" fill="#fc6234" d="M 189.5,178.5 C 190.833,178.5 192.167,178.5 193.5,178.5C 192.319,180.067 190.653,180.901 188.5,181C 190.81,181.497 193.143,181.663 195.5,181.5C 195.5,182.833 195.5,184.167 195.5,185.5C 193.278,185.822 191.444,185.155 190,183.5C 189.487,184.527 188.987,185.527 188.5,186.5C 172.167,186.5 155.833,186.5 139.5,186.5C 139.443,185.391 139.11,184.391 138.5,183.5C 138.389,182.883 138.056,182.383 137.5,182C 142.5,181.667 147.5,181.333 152.5,181C 151.944,180.617 151.611,180.117 151.5,179.5C 164.344,179.829 177.011,179.495 189.5,178.5 Z"/></g>
<g><path style="opacity:1" fill="#fc6132" d="M 203.5,177.5 C 204.167,177.5 204.5,177.833 204.5,178.5C 207.61,179.128 209.11,181.128 209,184.5C 211,184.5 213,184.5 215,184.5C 215.333,186.934 214.166,187.934 211.5,187.5C 204.018,186.508 196.352,186.175 188.5,186.5C 188.987,185.527 189.487,184.527 190,183.5C 191.444,185.155 193.278,185.822 195.5,185.5C 195.5,184.167 195.5,182.833 195.5,181.5C 193.143,181.663 190.81,181.497 188.5,181C 190.653,180.901 192.319,180.067 193.5,178.5C 193.5,178.167 193.5,177.833 193.5,177.5C 194.965,173.892 196.465,170.225 198,166.5C 199.221,167.774 200.054,169.274 200.5,171C 198.667,172.993 197.334,175.327 196.5,178C 198.421,178.36 200.088,179.194 201.5,180.5C 202.919,179.995 203.585,178.995 203.5,177.5 Z"/></g>
<g><path style="opacity:1" fill="#fc6133" d="M 79.5,177.5 C 80.1667,177.5 80.5,177.833 80.5,178.5C 86.3372,179.296 92.3372,179.962 98.5,180.5C 100.246,180.971 101.913,181.638 103.5,182.5C 104.647,182.182 105.481,181.516 106,180.5C 108.668,181.98 108.835,183.48 106.5,185C 101.642,185.633 97.142,185.466 93,184.5C 92.2828,185.044 91.7828,185.711 91.5,186.5C 83.5,186.5 75.5,186.5 67.5,186.5C 67.0805,184.906 66.4138,183.406 65.5,182C 65.6448,181.228 65.9781,180.561 66.5,180C 63.5184,179.502 60.5184,179.335 57.5,179.5C 61.7297,178.78 66.063,178.113 70.5,177.5C 71.926,176.198 73.2593,174.698 74.5,173C 72.8109,167.286 74.8109,165.453 80.5,167.5C 79.5094,171.143 78.5094,174.809 77.5,178.5C 78.6939,179.67 79.3605,179.337 79.5,177.5 Z"/></g>
<g><path style="opacity:1" fill="#f96639" d="M 80.5,178.5 C 116.833,178.5 153.167,178.5 189.5,178.5C 177.011,179.495 164.344,179.829 151.5,179.5C 138.163,179.333 124.829,179.5 111.5,180C 108.997,181.549 108.997,183.216 111.5,185C 117.651,185.98 123.651,185.48 129.5,183.5C 131.345,184.938 132.511,184.604 133,182.5C 134.699,183.406 136.533,183.739 138.5,183.5C 139.11,184.391 139.443,185.391 139.5,186.5C 123.5,186.5 107.5,186.5 91.5,186.5C 91.7828,185.711 92.2828,185.044 93,184.5C 97.142,185.466 101.642,185.633 106.5,185C 108.835,183.48 108.668,181.98 106,180.5C 105.481,181.516 104.647,182.182 103.5,182.5C 101.913,181.638 100.246,180.971 98.5,180.5C 92.3372,179.962 86.3372,179.296 80.5,178.5 Z"/></g>
<g><path style="opacity:0.671" fill="#eb6f4a" d="M 63.5,187.5 C 64.5676,186.566 65.901,186.232 67.5,186.5C 75.5,186.5 83.5,186.5 91.5,186.5C 107.5,186.5 123.5,186.5 139.5,186.5C 155.833,186.5 172.167,186.5 188.5,186.5C 196.352,186.175 204.018,186.508 211.5,187.5C 211.768,189.099 211.434,190.432 210.5,191.5C 210.5,190.167 210.5,188.833 210.5,187.5C 161.5,187.5 112.5,187.5 63.5,187.5 Z"/></g>
<g><path style="opacity:1" fill="#f76438" d="M 57.5,179.5 C 55.9624,181.551 56.2957,183.218 58.5,184.5C 59.3857,183.675 59.719,182.675 59.5,181.5C 60.9778,181.238 62.3112,181.571 63.5,182.5C 61.8035,183.364 60.6368,184.697 60,186.5C 59.1072,185.289 58.2739,185.289 57.5,186.5C 58.5588,189.235 59.2255,192.069 59.5,195C 59.6805,200.039 59.3471,205.206 58.5,210.5C 54.6348,201.655 53.1348,192.321 54,182.5C 54.4224,180.574 55.5891,179.574 57.5,179.5 Z"/></g>
<g><path style="opacity:1" fill="#f96335" d="M 204.5,178.5 C 208.514,178.334 212.514,178.501 216.5,179C 218.711,180.582 220.045,182.749 220.5,185.5C 219.843,196.467 217.176,206.8 212.5,216.5C 211.542,216.953 210.708,217.619 210,218.5C 209.517,217.552 209.351,216.552 209.5,215.5C 208.448,215.649 207.448,215.483 206.5,215C 207.424,214.15 207.424,213.15 206.5,212C 208.946,206.058 210.28,199.891 210.5,193.5C 210.5,192.833 210.5,192.167 210.5,191.5C 211.434,190.432 211.768,189.099 211.5,187.5C 214.166,187.934 215.333,186.934 215,184.5C 213,184.5 211,184.5 209,184.5C 209.11,181.128 207.61,179.128 204.5,178.5 Z"/></g>
<g><path style="opacity:0.259" fill="#464646" d="M 82.5,200.5 C 84.337,200.639 84.6704,201.306 83.5,202.5C 82.7025,202.043 82.3691,201.376 82.5,200.5 Z"/></g>
<g><path style="opacity:0.241" fill="#565656" d="M 107.5,200.5 C 109.337,200.639 109.67,201.306 108.5,202.5C 107.702,202.043 107.369,201.376 107.5,200.5 Z"/></g>
<g><path style="opacity:0.281" fill="#616161" d="M 132.5,200.5 C 134.337,200.639 134.67,201.306 133.5,202.5C 132.702,202.043 132.369,201.376 132.5,200.5 Z"/></g>
<g><path style="opacity:0.075" fill="#565656" d="M 182.5,200.5 C 184.337,200.639 184.67,201.306 183.5,202.5C 182.702,202.043 182.369,201.376 182.5,200.5 Z"/></g>
<g><path style="opacity:0.347" fill="#515151" d="M 257.5,200.5 C 259.337,200.639 259.67,201.306 258.5,202.5C 257.702,202.043 257.369,201.376 257.5,200.5 Z"/></g>
<g><path style="opacity:0.289" fill="#585858" d="M 282.5,200.5 C 284.337,200.639 284.67,201.306 283.5,202.5C 282.702,202.043 282.369,201.376 282.5,200.5 Z"/></g>
<g><path style="opacity:0.08" fill="#545454" d="M 7.5,200.5 C 9.33702,200.639 9.67036,201.306 8.5,202.5C 7.70245,202.043 7.36912,201.376 7.5,200.5 Z"/></g>
<g><path style="opacity:0.145" fill="#494949" d="M 32.5,200.5 C 34.337,200.639 34.6704,201.306 33.5,202.5C 32.7025,202.043 32.3691,201.376 32.5,200.5 Z"/></g>
<g><path style="opacity:0.086" fill="#666666" d="M 157.5,200.5 C 159.337,200.639 159.67,201.306 158.5,202.5C 157.702,202.043 157.369,201.376 157.5,200.5 Z"/></g>
<g><path style="opacity:0.084" fill="#525252" d="M 232.5,200.5 C 234.337,200.639 234.67,201.306 233.5,202.5C 232.702,202.043 232.369,201.376 232.5,200.5 Z"/></g>
<g><path style="opacity:1" fill="#fc6130" d="M 57.5,179.5 C 60.5184,179.335 63.5184,179.502 66.5,180C 65.9781,180.561 65.6448,181.228 65.5,182C 66.4138,183.406 67.0805,184.906 67.5,186.5C 65.901,186.232 64.5676,186.566 63.5,187.5C 63.1667,188.167 62.8333,188.833 62.5,189.5C 62.797,193.767 62.4637,197.934 61.5,202C 62.3333,203.5 63.5,204.667 65,205.5C 65.6202,209.693 64.9535,213.693 63,217.5C 61.8391,214.844 60.3391,212.511 58.5,210.5C 59.3471,205.206 59.6805,200.039 59.5,195C 59.2255,192.069 58.5588,189.235 57.5,186.5C 58.2739,185.289 59.1072,185.289 60,186.5C 60.6368,184.697 61.8035,183.364 63.5,182.5C 62.3112,181.571 60.9778,181.238 59.5,181.5C 59.719,182.675 59.3857,183.675 58.5,184.5C 56.2957,183.218 55.9624,181.551 57.5,179.5 Z"/></g>
<g><path style="opacity:1" fill="#f3673d" d="M 62.5,189.5 C 64.3532,202.548 69.0199,214.548 76.5,225.5C 74.4146,223.451 72.248,221.451 70,219.5C 68.9242,221.067 68.0909,222.734 67.5,224.5C 68.1776,226.516 68.8443,228.516 69.5,230.5C 64.2998,224.774 60.6332,218.107 58.5,210.5C 60.3391,212.511 61.8391,214.844 63,217.5C 64.9535,213.693 65.6202,209.693 65,205.5C 63.5,204.667 62.3333,203.5 61.5,202C 62.4637,197.934 62.797,193.767 62.5,189.5 Z"/></g>
<g><path style="opacity:1" fill="#f26438" d="M 210.5,193.5 C 210.28,199.891 208.946,206.058 206.5,212C 207.424,213.15 207.424,214.15 206.5,215C 207.448,215.483 208.448,215.649 209.5,215.5C 209.351,216.552 209.517,217.552 210,218.5C 210.708,217.619 211.542,216.953 212.5,216.5C 211.63,219.378 210.297,222.045 208.5,224.5C 209.855,225.675 209.688,226.675 208,227.5C 207.667,227.167 207.333,226.833 207,226.5C 206.338,227.984 205.504,229.317 204.5,230.5C 203.837,228.958 203.17,227.291 202.5,225.5C 200.533,224.318 199.2,224.985 198.5,227.5C 197.817,227.137 197.15,226.804 196.5,226.5C 203.531,216.378 208.198,205.378 210.5,193.5 Z"/></g>
<g><path style="opacity:0.275" fill="#575757" d="M 7.5,225.5 C 9.33702,225.639 9.67036,226.306 8.5,227.5C 7.70245,227.043 7.36912,226.376 7.5,225.5 Z"/></g>
<g><path style="opacity:0.335" fill="#545454" d="M 32.5,225.5 C 34.337,225.639 34.6704,226.306 33.5,227.5C 32.7025,227.043 32.3691,226.376 32.5,225.5 Z"/></g>
<g><path style="opacity:1" fill="#f86336" d="M 76.5,225.5 C 79.9587,228.415 82.9587,231.748 85.5,235.5C 87.2463,237.534 87.5796,239.701 86.5,242C 88.2297,243.852 89.3964,243.686 90,241.5C 91.487,242.253 91.6537,243.086 90.5,244C 95.6941,245.33 95.6941,246.83 90.5,248.5C 88.8704,246.736 86.8704,245.736 84.5,245.5C 78.5212,241.521 73.5212,236.521 69.5,230.5C 68.8443,228.516 68.1776,226.516 67.5,224.5C 68.0909,222.734 68.9242,221.067 70,219.5C 72.248,221.451 74.4146,223.451 76.5,225.5 Z"/></g>
<g><path style="opacity:0.118" fill="#5c4240" d="M 82.5,225.5 C 84.337,225.639 84.6704,226.306 83.5,227.5C 82.7025,227.043 82.3691,226.376 82.5,225.5 Z"/></g>
<g><path style="opacity:0.316" fill="#454545" d="M 107.5,225.5 C 110.001,225.511 110.168,226.178 108,227.5C 107.536,226.906 107.369,226.239 107.5,225.5 Z"/></g>
<g><path style="opacity:0.339" fill="#404040" d="M 132.5,225.5 C 134.337,225.639 134.67,226.306 133.5,227.5C 132.702,227.043 132.369,226.376 132.5,225.5 Z"/></g>
<g><path style="opacity:0.251" fill="#3f403f" d="M 157.5,225.5 C 160.001,225.511 160.168,226.178 158,227.5C 157.536,226.906 157.369,226.239 157.5,225.5 Z"/></g>
<g><path style="opacity:0.122" fill="#403938" d="M 182.5,225.5 C 185.001,225.511 185.168,226.178 183,227.5C 182.536,226.906 182.369,226.239 182.5,225.5 Z"/></g>
<g><path style="opacity:0.337" fill="#4b4b4b" d="M 232.5,225.5 C 234.337,225.639 234.67,226.306 233.5,227.5C 232.702,227.043 232.369,226.376 232.5,225.5 Z"/></g>
<g><path style="opacity:0.343" fill="#525252" d="M 257.5,225.5 C 259.337,225.639 259.67,226.306 258.5,227.5C 257.702,227.043 257.369,226.376 257.5,225.5 Z"/></g>
<g><path style="opacity:0.282" fill="#4e4e4e" d="M 282.5,225.5 C 284.337,225.639 284.67,226.306 283.5,227.5C 282.702,227.043 282.369,226.376 282.5,225.5 Z"/></g>
<g><path style="opacity:0.145" fill="#6a6061" d="M 57.5,225.5 C 59.337,225.639 59.6704,226.306 58.5,227.5C 57.7025,227.043 57.3691,226.376 57.5,225.5 Z"/></g>
<g><path style="opacity:1" fill="#f86235" d="M 204.5,230.5 C 195.143,243.251 183.476,252.251 169.5,257.5C 167.856,257.714 166.356,257.38 165,256.5C 164.097,257.701 162.931,258.535 161.5,259C 164.147,259.315 164.813,260.482 163.5,262.5C 161.235,263.647 158.902,263.814 156.5,263C 158.179,260.435 158.846,257.602 158.5,254.5C 160.527,254.662 162.527,254.495 164.5,254C 165.171,253.014 165.171,251.847 164.5,250.5C 176.598,244.447 187.264,236.447 196.5,226.5C 197.15,226.804 197.817,227.137 198.5,227.5C 199.2,224.985 200.533,224.318 202.5,225.5C 203.17,227.291 203.837,228.958 204.5,230.5 Z"/></g>
<g><path style="opacity:0.273" fill="#464646" d="M 7.5,250.5 C 9.33702,250.639 9.67036,251.306 8.5,252.5C 7.70245,252.043 7.36912,251.376 7.5,250.5 Z"/></g>
<g><path style="opacity:0.141" fill="#4d4d4d" d="M 32.5,250.5 C 34.337,250.639 34.6704,251.306 33.5,252.5C 32.7025,252.043 32.3691,251.376 32.5,250.5 Z"/></g>
<g><path style="opacity:0.333" fill="#4c4c4c" d="M 57.5,250.5 C 59.337,250.639 59.6704,251.306 58.5,252.5C 57.7025,252.043 57.3691,251.376 57.5,250.5 Z"/></g>
<g><path style="opacity:0.329" fill="#4e4e4e" d="M 132.5,250.5 C 134.337,250.639 134.67,251.306 133.5,252.5C 132.702,252.043 132.369,251.376 132.5,250.5 Z"/></g>
<g><path style="opacity:0.277" fill="#4e4e4e" d="M 207.5,250.5 C 209.337,250.639 209.67,251.306 208.5,252.5C 207.702,252.043 207.369,251.376 207.5,250.5 Z"/></g>
<g><path style="opacity:0.273" fill="#525252" d="M 232.5,250.5 C 234.337,250.639 234.67,251.306 233.5,252.5C 232.702,252.043 232.369,251.376 232.5,250.5 Z"/></g>
<g><path style="opacity:0.103" fill="#535353" d="M 257.5,250.5 C 259.337,250.639 259.67,251.306 258.5,252.5C 257.702,252.043 257.369,251.376 257.5,250.5 Z"/></g>
<g><path style="opacity:0.343" fill="#4d4d4d" d="M 282.5,250.5 C 284.337,250.639 284.67,251.306 283.5,252.5C 282.702,252.043 282.369,251.376 282.5,250.5 Z"/></g>
<g><path style="opacity:0.149" fill="#826666" d="M 82.5,250.5 C 84.337,250.639 84.6704,251.306 83.5,252.5C 82.7025,252.043 82.3691,251.376 82.5,250.5 Z"/></g>
<g><path style="opacity:1" fill="#ec653f" d="M 85.5,235.5 C 94.2002,242.522 103.867,248.022 114.5,252C 116.314,254.481 116.98,257.315 116.5,260.5C 129.5,260.5 142.5,260.5 155.5,260.5C 153.012,262.388 150.012,263.055 146.5,262.5C 136.494,262.666 126.494,262.5 116.5,262C 114.699,261.683 114.366,261.016 115.5,260C 114.887,257.853 114.221,255.686 113.5,253.5C 110.388,254.351 110.054,255.517 112.5,257C 111.85,259.456 110.85,261.79 109.5,264C 110.506,265.338 111.506,266.671 112.5,268C 124.829,268.5 137.162,268.667 149.5,268.5C 154.921,268.75 159.921,267.75 164.5,265.5C 163.543,268.168 161.543,269.668 158.5,270C 143.833,270.667 129.167,270.667 114.5,270C 109.407,268.163 106.74,264.497 106.5,259C 98.2219,255.858 90.8886,251.358 84.5,245.5C 86.8704,245.736 88.8704,246.736 90.5,248.5C 95.6941,246.83 95.6941,245.33 90.5,244C 91.6537,243.086 91.487,242.253 90,241.5C 89.3964,243.686 88.2297,243.852 86.5,242C 87.5796,239.701 87.2463,237.534 85.5,235.5 Z"/></g>
<g><path style="opacity:1" fill="#f76236" d="M 164.5,250.5 C 165.171,251.847 165.171,253.014 164.5,254C 162.527,254.495 160.527,254.662 158.5,254.5C 158.846,257.602 158.179,260.435 156.5,263C 158.902,263.814 161.235,263.647 163.5,262.5C 164.813,260.482 164.147,259.315 161.5,259C 162.931,258.535 164.097,257.701 165,256.5C 166.356,257.38 167.856,257.714 169.5,257.5C 168.791,258.404 167.791,258.737 166.5,258.5C 166.59,261.152 165.924,263.485 164.5,265.5C 159.921,267.75 154.921,268.75 149.5,268.5C 147.988,266.809 146.988,264.809 146.5,262.5C 150.012,263.055 153.012,262.388 155.5,260.5C 156.188,257.98 157.188,255.48 158.5,253C 158.043,252.586 157.709,252.086 157.5,251.5C 159.694,251.642 162.027,251.309 164.5,250.5 Z"/></g>
<g><path style="opacity:1" fill="#fd6132" d="M 146.5,262.5 C 146.988,264.809 147.988,266.809 149.5,268.5C 137.162,268.667 124.829,268.5 112.5,268C 111.506,266.671 110.506,265.338 109.5,264C 110.85,261.79 111.85,259.456 112.5,257C 110.054,255.517 110.388,254.351 113.5,253.5C 114.221,255.686 114.887,257.853 115.5,260C 114.366,261.016 114.699,261.683 116.5,262C 126.494,262.5 136.494,262.666 146.5,262.5 Z"/></g>
<g><path style="opacity:0.133" fill="#474747" d="M 7.5,275.5 C 9.33702,275.639 9.67036,276.306 8.5,277.5C 7.70245,277.043 7.36912,276.376 7.5,275.5 Z"/></g>
<g><path style="opacity:0.133" fill="#464646" d="M 32.5,275.5 C 34.337,275.639 34.6704,276.306 33.5,277.5C 32.7025,277.043 32.3691,276.376 32.5,275.5 Z"/></g>
<g><path style="opacity:0.09" fill="#353535" d="M 57.5,275.5 C 59.337,275.639 59.6704,276.306 58.5,277.5C 57.7025,277.043 57.3691,276.376 57.5,275.5 Z"/></g>
<g><path style="opacity:0.288" fill="#1f1f1f" d="M 82.5,275.5 C 84.337,275.639 84.6704,276.306 83.5,277.5C 82.7025,277.043 82.3691,276.376 82.5,275.5 Z"/></g>
<g><path style="opacity:0.322" fill="#393939" d="M 132.5,275.5 C 134.337,275.639 134.67,276.306 133.5,277.5C 132.702,277.043 132.369,276.376 132.5,275.5 Z"/></g>
<g><path style="opacity:0.118" fill="#212121" d="M 182.5,275.5 C 184.337,275.639 184.67,276.306 183.5,277.5C 182.702,277.043 182.369,276.376 182.5,275.5 Z"/></g>
<g><path style="opacity:0.247" fill="#2c2c2c" d="M 207.5,275.5 C 209.337,275.639 209.67,276.306 208.5,277.5C 207.702,277.043 207.369,276.376 207.5,275.5 Z"/></g>
<g><path style="opacity:0.133" fill="#4a4a4a" d="M 232.5,275.5 C 234.337,275.639 234.67,276.306 233.5,277.5C 232.702,277.043 232.369,276.376 232.5,275.5 Z"/></g>
<g><path style="opacity:0.339" fill="#454545" d="M 257.5,275.5 C 259.337,275.639 259.67,276.306 258.5,277.5C 257.702,277.043 257.369,276.376 257.5,275.5 Z"/></g>
<g><path style="opacity:0.347" fill="#464646" d="M 282.5,275.5 C 284.337,275.639 284.67,276.306 283.5,277.5C 282.702,277.043 282.369,276.376 282.5,275.5 Z"/></g>
<g><path style="opacity:0.012" fill="#484848" d="M 107.5,275.5 C 109.337,275.639 109.67,276.306 108.5,277.5C 107.702,277.043 107.369,276.376 107.5,275.5 Z"/></g>
<g><path style="opacity:0.122" fill="#403a3a" d="M 157.5,275.5 C 159.337,275.639 159.67,276.306 158.5,277.5C 157.702,277.043 157.369,276.376 157.5,275.5 Z"/></g>
</svg>
